<?xml version="1.0" standalone="no"?><!DOCTYPE svg PUBLIC "-//W3C//DTD SVG 1.1//EN" "http://www.w3.org/Graphics/SVG/1.1/DTD/svg11.dtd"><svg t="1596419652993" class="icon" viewBox="0 0 1024 1024" version="1.1" xmlns="http://www.w3.org/2000/svg" p-id="1532" xmlns:xlink="http://www.w3.org/1999/xlink" width="200" height="200"><defs><style type="text/css"></style></defs><path d="M768 320a106.666667 106.666667 0 0 1 106.666667 106.666667v341.333333a106.666667 106.666667 0 0 1-106.666667 106.666667H256a106.666667 106.666667 0 0 1-106.666667-106.666667V426.666667a106.666667 106.666667 0 0 1 106.666667-106.666667h512m0-64H256a170.666667 170.666667 0 0 0-170.666667 170.666667v341.333333a170.666667 170.666667 0 0 0 170.666667 170.666667h512a170.666667 170.666667 0 0 0 170.666667-170.666667V426.666667a170.666667 170.666667 0 0 0-170.666667-170.666667z" fill="#949494" p-id="1533"></path><path d="M768 320a106.666667 106.666667 0 0 1 106.666667 106.666667v44.853333L525.066667 515.2a109.76 109.76 0 0 1-26.666667 0L149.333333 471.52V426.666667a106.666667 106.666667 0 0 1 106.666667-106.666667h512m0-64H256a170.666667 170.666667 0 0 0-170.666667 170.666667v101.333333l405.333334 50.666667a168.8 168.8 0 0 0 42.346666 0L938.666667 528V426.666667a170.666667 170.666667 0 0 0-170.666667-170.666667z" fill="#949494" p-id="1534"></path><path d="M512 149.333333a128 128 0 0 1 126.24 106.666667H385.76A128 128 0 0 1 512 149.333333m0-64a192 192 0 0 0-192 192v42.666667h384v-42.666667a192 192 0 0 0-192-192z" fill="#949494" p-id="1535"></path></svg>