<?xml version="1.0" standalone="no"?><!DOCTYPE svg PUBLIC "-//W3C//DTD SVG 1.1//EN" "http://www.w3.org/Graphics/SVG/1.1/DTD/svg11.dtd"><svg t="1596419605603" class="icon" viewBox="0 0 1024 1024" version="1.1" xmlns="http://www.w3.org/2000/svg" p-id="1278" xmlns:xlink="http://www.w3.org/1999/xlink" width="200" height="200"><defs><style type="text/css"></style></defs><path d="M512 144a181.333333 181.333333 0 1 1-181.333333 181.333333 181.333333 181.333333 0 0 1 181.333333-181.333333m0-64a245.333333 245.333333 0 1 0 245.333333 245.333333 245.333333 245.333333 0 0 0-245.333333-245.333333z" fill="#108ee9" p-id="1279"></path><path d="M512 570.666667a341.706667 341.706667 0 0 1 341.333333 341.333333h64a405.333333 405.333333 0 0 0-810.666666 0h64a341.706667 341.706667 0 0 1 341.333333-341.333333zM106.666667 912h64a32 32 0 0 1-32 32 32 32 0 0 1-32-32zM853.333333 912h64a32 32 0 0 1-32 32 32 32 0 0 1-32-32z" fill="#108ee9" p-id="1280"></path></svg>