<?xml version="1.0" standalone="no"?><!DOCTYPE svg PUBLIC "-//W3C//DTD SVG 1.1//EN" "http://www.w3.org/Graphics/SVG/1.1/DTD/svg11.dtd"><svg t="1596419697478" class="icon" viewBox="0 0 1024 1024" version="1.1" xmlns="http://www.w3.org/2000/svg" p-id="1793" xmlns:xlink="http://www.w3.org/1999/xlink" width="200" height="200"><defs><style type="text/css"></style></defs><path d="M789.333333 192a106.666667 106.666667 0 0 1 106.666667 106.666667v426.666666a106.666667 106.666667 0 0 1-106.666667 106.666667H234.666667a106.666667 106.666667 0 0 1-106.666667-106.666667V298.666667a106.666667 106.666667 0 0 1 106.666667-106.666667h554.666666m0-64H234.666667a170.666667 170.666667 0 0 0-170.666667 170.666667v426.666666a170.666667 170.666667 0 0 0 170.666667 170.666667h554.666666a170.666667 170.666667 0 0 0 170.666667-170.666667V298.666667a170.666667 170.666667 0 0 0-170.666667-170.666667z" fill="#108ee9" p-id="1794"></path><path d="M789.333333 192a106.666667 106.666667 0 0 1 106.666667 102.72L555.946667 448.533333a106.666667 106.666667 0 0 1-87.893334 0L128 294.72A106.666667 106.666667 0 0 1 234.666667 192h554.666666m0-64H234.666667a170.666667 170.666667 0 0 0-170.666667 170.666667v37.333333l377.653333 170.666667a170.4 170.4 0 0 0 140.693334 0L960 336v-37.333333a170.666667 170.666667 0 0 0-170.666667-170.666667z" fill="#108ee9" p-id="1795"></path></svg>